<svg xmlns="http://www.w3.org/2000/svg" width="21" height="22" viewBox="0 0 21 22" fill="none">
<path d="M18.4851 0.921448H1.68507C1.2395 0.921448 0.812188 1.09845 0.497126 1.41351C0.182065 1.72857 0.00506592 2.15588 0.00506592 2.60145V19.4014C0.00506592 19.847 0.182065 20.2743 0.497126 20.5894C0.812188 20.9044 1.2395 21.0814 1.68507 21.0814H18.4851C18.9306 21.0814 19.3579 20.9044 19.673 20.5894C19.9881 20.2743 20.1651 19.847 20.1651 19.4014V2.60145C20.1651 2.15588 19.9881 1.72857 19.673 1.41351C19.3579 1.09845 18.9306 0.921448 18.4851 0.921448ZM14.8794 9.07575L8.99937 14.9557C8.92135 15.0338 8.82871 15.0958 8.72674 15.1381C8.62476 15.1804 8.51545 15.2021 8.40507 15.2021C8.29468 15.2021 8.18537 15.1804 8.0834 15.1381C7.98142 15.0958 7.88878 15.0338 7.81077 14.9557L5.29077 12.4357C5.13315 12.2781 5.0446 12.0644 5.0446 11.8414C5.0446 11.6185 5.13315 11.4048 5.29077 11.2471C5.44838 11.0895 5.66216 11.001 5.88507 11.001C6.10797 11.001 6.32175 11.0895 6.47937 11.2471L8.40507 13.1739L13.6908 7.88715C13.7688 7.8091 13.8615 7.74719 13.9634 7.70496C14.0654 7.66272 14.1747 7.64098 14.2851 7.64098C14.3954 7.64098 14.5047 7.66272 14.6067 7.70496C14.7087 7.74719 14.8013 7.8091 14.8794 7.88715C14.9574 7.96519 15.0193 8.05784 15.0616 8.15981C15.1038 8.26178 15.1255 8.37108 15.1255 8.48145C15.1255 8.59182 15.1038 8.70111 15.0616 8.80308C15.0193 8.90505 14.9574 8.9977 14.8794 9.07575Z" fill="white"/>
</svg>