<svg xmlns="http://www.w3.org/2000/svg" width="22" height="18" viewBox="0 0 22 18" fill="none">
<g clip-path="url(#clip0_17_413)">
<path d="M17.5292 0.961426H4.4843C4.13833 0.961426 3.80653 1.09886 3.56189 1.3435C3.31725 1.58814 3.17981 1.91995 3.17981 2.26592V7.05748C3.17981 14.3635 9.36147 16.7874 10.5991 17.1991C10.8634 17.289 11.1501 17.289 11.4144 17.1991C12.6537 16.7874 18.8337 14.3635 18.8337 7.05748V2.26592C18.8337 1.91995 18.6963 1.58814 18.4516 1.3435C18.207 1.09886 17.8752 0.961426 17.5292 0.961426ZM14.7295 6.64086L10.1637 11.2066C10.1032 11.2672 10.0312 11.3153 9.95204 11.3482C9.87286 11.381 9.78799 11.3979 9.70227 11.3979C9.61656 11.3979 9.53168 11.381 9.4525 11.3482C9.37332 11.3153 9.30138 11.2672 9.24081 11.2066L7.28407 9.24985C7.16168 9.12746 7.09292 8.96146 7.09292 8.78838C7.09292 8.6153 7.16168 8.4493 7.28407 8.32692C7.40646 8.20453 7.57245 8.13577 7.74553 8.13577C7.91862 8.13577 8.08461 8.20453 8.207 8.32692L9.70227 9.82219L13.8065 5.71793C13.8671 5.65733 13.9391 5.60926 14.0183 5.57646C14.0974 5.54367 14.1823 5.52679 14.268 5.52679C14.3537 5.52679 14.4386 5.54367 14.5177 5.57646C14.5969 5.60926 14.6689 5.65733 14.7295 5.71793C14.7901 5.77853 14.8381 5.85047 14.8709 5.92965C14.9037 6.00883 14.9206 6.09369 14.9206 6.1794C14.9206 6.2651 14.9037 6.34996 14.8709 6.42914C14.8381 6.50832 14.7901 6.58026 14.7295 6.64086Z" fill="#787562"/>
</g>
<defs>
<clipPath id="clip0_17_413">
<rect width="20.8719" height="16.9584" fill="white" transform="translate(0.568481 0.311768)"/>
</clipPath>
</defs>
</svg>