<svg xmlns="http://www.w3.org/2000/svg" width="22" height="18" viewBox="0 0 22 18" fill="none">
<g clip-path="url(#clip0_17_419)">
<path d="M17.5913 1.61357H15.6346V0.961328C15.6346 0.788342 15.5659 0.62244 15.4436 0.500121C15.3212 0.377801 15.1553 0.309082 14.9823 0.309082C14.8094 0.309082 14.6435 0.377801 14.5211 0.500121C14.3988 0.62244 14.3301 0.788342 14.3301 0.961328V1.61357H7.80764V0.961328C7.80764 0.788342 7.73892 0.62244 7.6166 0.500121C7.49428 0.377801 7.32838 0.309082 7.15539 0.309082C6.9824 0.309082 6.8165 0.377801 6.69418 0.500121C6.57186 0.62244 6.50314 0.788342 6.50314 0.961328V1.61357H4.54641C4.20043 1.61357 3.86863 1.75101 3.62399 1.99565C3.37935 2.24029 3.24191 2.57209 3.24191 2.91807V15.963C3.24191 16.309 3.37935 16.6408 3.62399 16.8854C3.86863 17.13 4.20043 17.2675 4.54641 17.2675H17.5913C17.9373 17.2675 18.2691 17.13 18.5137 16.8854C18.7584 16.6408 18.8958 16.309 18.8958 15.963V2.91807C18.8958 2.57209 18.7584 2.24029 18.5137 1.99565C18.2691 1.75101 17.9373 1.61357 17.5913 1.61357ZM14.4654 9.90199L10.552 13.8155C10.4914 13.8761 10.4195 13.9242 10.3403 13.957C10.2611 13.9899 10.1762 14.0068 10.0905 14.0068C10.0048 14.0068 9.91991 13.9899 9.84073 13.957C9.76155 13.9242 9.68961 13.8761 9.62903 13.8155L7.6723 11.8587C7.54991 11.7363 7.48115 11.5704 7.48115 11.3973C7.48115 11.2242 7.54991 11.0582 7.6723 10.9358C7.79468 10.8134 7.96068 10.7447 8.13376 10.7447C8.30684 10.7447 8.47284 10.8134 8.59522 10.9358L10.0905 12.4319L13.5425 8.97906C13.6031 8.91846 13.6751 8.87039 13.7542 8.8376C13.8334 8.8048 13.9183 8.78792 14.004 8.78792C14.0897 8.78792 14.1745 8.8048 14.2537 8.8376C14.3329 8.87039 14.4048 8.91846 14.4654 8.97906C14.526 9.03967 14.5741 9.11161 14.6069 9.19079C14.6397 9.26997 14.6566 9.35483 14.6566 9.44053C14.6566 9.52623 14.6397 9.61109 14.6069 9.69027C14.5741 9.76945 14.526 9.84139 14.4654 9.90199ZM4.54641 5.52705V2.91807H6.50314V3.57031C6.50314 3.7433 6.57186 3.9092 6.69418 4.03152C6.8165 4.15384 6.9824 4.22256 7.15539 4.22256C7.32838 4.22256 7.49428 4.15384 7.6166 4.03152C7.73892 3.9092 7.80764 3.7433 7.80764 3.57031V2.91807H14.3301V3.57031C14.3301 3.7433 14.3988 3.9092 14.5211 4.03152C14.6435 4.15384 14.8094 4.22256 14.9823 4.22256C15.1553 4.22256 15.3212 4.15384 15.4436 4.03152C15.5659 3.9092 15.6346 3.7433 15.6346 3.57031V2.91807H17.5913V5.52705H4.54641Z" fill="#787562"/>
</g>
<defs>
<clipPath id="clip0_17_419">
<rect width="20.8719" height="16.9584" fill="white" transform="translate(0.632538 0.311768)"/>
</clipPath>
</defs>
</svg>