<svg xmlns="http://www.w3.org/2000/svg" width="22" height="17" viewBox="0 0 22 17" fill="none">
<path d="M18.0932 5.31288H15.4843V1.83423H1.56967V13.1398H3.309C3.309 14.5835 4.47434 15.7488 5.91798 15.7488C7.36162 15.7488 8.52697 14.5835 8.52697 13.1398H13.7449C13.7449 14.5835 14.9103 15.7488 16.3539 15.7488C17.7976 15.7488 18.9629 14.5835 18.9629 13.1398H20.7022V8.79152L18.0932 5.31288ZM5.91798 14.0095C5.43967 14.0095 5.04832 13.6181 5.04832 13.1398C5.04832 12.6615 5.43967 12.2702 5.91798 12.2702C6.39629 12.2702 6.78764 12.6615 6.78764 13.1398C6.78764 13.6181 6.39629 14.0095 5.91798 14.0095ZM17.6584 6.61737L19.3629 8.79152H15.4843V6.61737H17.6584ZM16.3539 14.0095C15.8756 14.0095 15.4843 13.6181 15.4843 13.1398C15.4843 12.6615 15.8756 12.2702 16.3539 12.2702C16.8322 12.2702 17.2236 12.6615 17.2236 13.1398C17.2236 13.6181 16.8322 14.0095 16.3539 14.0095Z" fill="#787562"/>
</svg>