<svg xmlns="http://www.w3.org/2000/svg" width="181" height="105" viewBox="0 0 181 105" fill="none">
<path d="M47.5 34.0058L49.4604 40.3519L49.5251 40.5612H49.7441H56.1221L50.9478 44.5129L50.7831 44.6386L50.8443 44.8366L52.8137 51.2001L47.6802 47.2796L47.5 47.142L47.3198 47.2796L42.1863 51.2001L44.1557 44.8366L44.2169 44.6386L44.0522 44.5129L38.8779 40.5612H45.2559H45.4749L45.5396 40.3519L47.5 34.0058Z" fill="white" stroke="white" stroke-width="0.59375" stroke-miterlimit="10"/>
<path d="M67.6875 33L69.9316 40.2643H77.1875L71.3155 44.7488L73.5595 52L67.6875 47.5155L61.8155 52L64.0596 44.7488L58.1875 40.2643H65.4434L67.6875 33Z" fill="white"/>
<path d="M89.0687 33L91.2989 40.2643H98.5625L92.6943 44.7488L94.9369 52L89.0687 47.5155L83.2005 52L85.4307 44.7488L79.5625 40.2643H86.8261L89.0687 33Z" fill="white"/>
<path d="M110.438 33L112.682 40.2643H119.938L114.065 44.7488L116.31 52L110.438 47.5155L104.565 52L106.81 44.7488L100.938 40.2643H108.193L110.438 33Z" fill="white"/>
<path d="M131.812 33L134.057 40.2643H141.313L135.44 44.7488L137.685 52L131.812 47.5155L125.94 52L128.185 44.7488L122.312 40.2643H129.568L131.812 33Z" fill="white"/>
<g clip-path="url(#clip0_230_528)">
<path d="M36.0588 81.9753V79.8597H39.1746V59.4085L36 59.7023V58.145C36.7349 57.9687 37.4403 57.7042 38.1164 57.381C38.7925 57.0578 39.4392 56.6464 40.027 56.1763H41.7319V79.8597H44.7008V81.9753H36.0588Z" fill="white"/>
<path d="M61.9551 69.0759C61.9551 71.3679 61.8376 73.366 61.573 75.0115C61.3085 76.657 60.9557 78.0086 60.456 79.0664C59.9563 80.1243 59.3096 80.9176 58.5454 81.4171C57.7811 81.9167 56.8699 82.1811 55.8411 82.1811C54.8123 82.1811 53.9011 81.9167 53.1368 81.4171C52.3726 80.9176 51.7259 80.1243 51.2262 79.0664C50.7265 78.0086 50.3443 76.657 50.1092 75.0115C49.874 73.366 49.7271 71.3972 49.7271 69.0759C49.7271 66.7546 49.8446 64.7859 50.1092 63.1404C50.3443 61.4949 50.7265 60.1432 51.2262 59.0854C51.7259 58.0276 52.3726 57.2342 53.1368 56.7347C53.9011 56.2352 54.8123 55.9707 55.8411 55.9707C56.8699 55.9707 57.7811 56.2352 58.5454 56.7347C59.3096 57.2342 59.9563 58.0276 60.456 59.0854C60.9557 60.1432 61.3379 61.4949 61.573 63.1404C61.8082 64.7859 61.9551 66.7546 61.9551 69.0759ZM59.4272 69.0759C59.4272 66.9897 59.339 65.2266 59.1921 63.8456C59.0451 62.4352 58.8099 61.3186 58.516 60.4664C58.222 59.6143 57.8399 59.0266 57.399 58.6446C56.9581 58.292 56.429 58.0863 55.8411 58.0863C55.2532 58.0863 54.7241 58.2626 54.2832 58.6446C53.8423 58.9972 53.4601 59.6143 53.1662 60.4664C52.8723 61.3186 52.6371 62.4352 52.4901 63.8456C52.3432 65.256 52.255 66.9897 52.255 69.0759C52.255 71.1622 52.3432 72.9252 52.4901 74.3062C52.6371 75.7167 52.8723 76.8333 53.1662 77.6854C53.4601 78.5375 53.8423 79.1252 54.2832 79.5072C54.7241 79.8598 55.2532 80.0655 55.8411 80.0655C56.429 80.0655 56.9581 79.8892 57.399 79.5072C57.8399 79.1546 58.222 78.5375 58.516 77.6854C58.8099 76.8333 59.0451 75.7167 59.1921 74.3062C59.339 72.8958 59.4272 71.1622 59.4272 69.0759Z" fill="white"/>
<path d="M77.6221 69.0759C77.6221 71.3679 77.5046 73.366 77.24 75.0115C76.9755 76.657 76.6227 78.0086 76.123 79.0664C75.6233 80.1243 74.9766 80.9176 74.2124 81.4171C73.4481 81.9167 72.5369 82.1811 71.5081 82.1811C70.4793 82.1811 69.5681 81.9167 68.8038 81.4171C68.0395 80.9176 67.3929 80.1243 66.8932 79.0664C66.3935 78.0086 66.0113 76.657 65.7762 75.0115C65.541 73.366 65.394 71.3972 65.394 69.0759C65.394 66.7546 65.5116 64.7859 65.7762 63.1404C66.0113 61.4949 66.3935 60.1432 66.8932 59.0854C67.3929 58.0276 68.0395 57.2342 68.8038 56.7347C69.5681 56.2352 70.4793 55.9707 71.5081 55.9707C72.5369 55.9707 73.4481 56.2352 74.2124 56.7347C74.9766 57.2342 75.6233 58.0276 76.123 59.0854C76.6227 60.1432 77.0049 61.4949 77.24 63.1404C77.4752 64.7859 77.6221 66.7546 77.6221 69.0759ZM75.0942 69.0759C75.0942 66.9897 75.006 65.2266 74.8591 63.8456C74.7121 62.4352 74.4769 61.3186 74.183 60.4664C73.889 59.6143 73.5069 59.0266 73.066 58.6446C72.6251 58.292 72.096 58.0863 71.5081 58.0863C70.9202 58.0863 70.3911 58.2626 69.9502 58.6446C69.5093 58.9972 69.1271 59.6143 68.8332 60.4664C68.5392 61.3186 68.3041 62.4352 68.1571 63.8456C68.0101 65.256 67.922 66.9897 67.922 69.0759C67.922 71.1622 68.0101 72.9252 68.1571 74.3062C68.3041 75.7167 68.5392 76.8333 68.8332 77.6854C69.1271 78.5375 69.5093 79.1252 69.9502 79.5072C70.3911 79.8598 70.9202 80.0655 71.5081 80.0655C72.096 80.0655 72.6251 79.8892 73.066 79.5072C73.5069 79.1546 73.889 78.5375 74.183 77.6854C74.4769 76.8333 74.7121 75.7167 74.8591 74.3062C75.006 72.8958 75.0942 71.1622 75.0942 69.0759Z" fill="white"/>
<path d="M84.7063 78.4199V81.946L82.5899 87.0294H81.5317L83.1484 81.7403H81.7375V78.4199H84.7063Z" fill="white"/>
<path d="M101.109 69.0759C101.109 71.3679 100.991 73.366 100.727 75.0115C100.462 76.657 100.11 78.0086 99.6098 79.0664C99.1101 80.1243 98.4635 80.9176 97.6992 81.4171C96.9349 81.9167 96.0237 82.1811 94.9949 82.1811C93.9661 82.1811 93.0549 81.9167 92.2906 81.4171C91.5264 80.9176 90.8797 80.1243 90.38 79.0664C89.8803 78.0086 89.4981 76.657 89.263 75.0115C89.0278 73.366 88.8809 71.3972 88.8809 69.0759C88.8809 66.7546 88.9984 64.7859 89.263 63.1404C89.4981 61.4949 89.8803 60.1432 90.38 59.0854C90.8797 58.0276 91.5264 57.2342 92.2906 56.7347C93.0549 56.2352 93.9661 55.9707 94.9949 55.9707C96.0237 55.9707 96.9349 56.2352 97.6992 56.7347C98.4635 57.2342 99.1101 58.0276 99.6098 59.0854C100.11 60.1432 100.492 61.4949 100.727 63.1404C100.962 64.7859 101.109 66.7546 101.109 69.0759ZM98.581 69.0759C98.581 66.9897 98.4928 65.2266 98.3459 63.8456C98.1989 62.4352 97.9637 61.3186 97.6698 60.4664C97.3759 59.6143 96.9937 59.0266 96.5528 58.6446C96.1119 58.292 95.5828 58.0863 94.9949 58.0863C94.407 58.0863 93.8779 58.2626 93.437 58.6446C92.9961 58.9972 92.614 59.6143 92.32 60.4664C92.0261 61.3186 91.7909 62.4352 91.6439 63.8456C91.497 65.256 91.4088 66.9897 91.4088 69.0759C91.4088 71.1622 91.497 72.9252 91.6439 74.3062C91.7909 75.7167 92.0261 76.8333 92.32 77.6854C92.614 78.5375 92.9961 79.1252 93.437 79.5072C93.8779 79.8598 94.407 80.0655 94.9949 80.0655C95.5828 80.0655 96.1119 79.8892 96.5528 79.5072C96.9937 79.1546 97.3759 78.5375 97.6698 77.6854C97.9637 76.8333 98.1989 75.7167 98.3459 74.3062C98.4928 72.8958 98.581 71.1622 98.581 69.0759Z" fill="white"/>
<path d="M116.776 69.0759C116.776 71.3679 116.658 73.366 116.394 75.0115C116.129 76.657 115.777 78.0086 115.277 79.0664C114.777 80.1243 114.13 80.9176 113.366 81.4171C112.602 81.9167 111.691 82.1811 110.662 82.1811C109.633 82.1811 108.722 81.9167 107.958 81.4171C107.193 80.9176 106.547 80.1243 106.047 79.0664C105.547 78.0086 105.165 76.657 104.93 75.0115C104.695 73.366 104.548 71.3972 104.548 69.0759C104.548 66.7546 104.665 64.7859 104.93 63.1404C105.165 61.4949 105.547 60.1432 106.047 59.0854C106.547 58.0276 107.193 57.2342 107.958 56.7347C108.722 56.2352 109.633 55.9707 110.662 55.9707C111.691 55.9707 112.602 56.2352 113.366 56.7347C114.13 57.2342 114.777 58.0276 115.277 59.0854C115.777 60.1432 116.159 61.4949 116.394 63.1404C116.629 64.7859 116.776 66.7546 116.776 69.0759ZM114.248 69.0759C114.248 66.9897 114.16 65.2266 114.013 63.8456C113.866 62.4352 113.631 61.3186 113.337 60.4664C113.043 59.6143 112.661 59.0266 112.22 58.6446C111.779 58.292 111.25 58.0863 110.662 58.0863C110.074 58.0863 109.545 58.2626 109.104 58.6446C108.663 58.9972 108.281 59.6143 107.987 60.4664C107.693 61.3186 107.458 62.4352 107.311 63.8456C107.164 65.256 107.076 66.9897 107.076 69.0759C107.076 71.1622 107.164 72.9252 107.311 74.3062C107.458 75.7167 107.693 76.8333 107.987 77.6854C108.281 78.5375 108.663 79.1252 109.104 79.5072C109.545 79.8598 110.074 80.0655 110.662 80.0655C111.25 80.0655 111.779 79.8892 112.22 79.5072C112.661 79.1546 113.043 78.5375 113.337 77.6854C113.631 76.8333 113.866 75.7167 114.013 74.3062C114.16 72.8958 114.248 71.1622 114.248 69.0759Z" fill="white"/>
<path d="M132.443 69.0759C132.443 71.3679 132.325 73.366 132.061 75.0115C131.796 76.657 131.444 78.0086 130.944 79.0664C130.444 80.1243 129.797 80.9176 129.033 81.4171C128.269 81.9167 127.358 82.1811 126.329 82.1811C125.3 82.1811 124.389 81.9167 123.625 81.4171C122.86 80.9176 122.214 80.1243 121.714 79.0664C121.214 78.0086 120.832 76.657 120.597 75.0115C120.362 73.366 120.215 71.3972 120.215 69.0759C120.215 66.7546 120.332 64.7859 120.597 63.1404C120.832 61.4949 121.214 60.1432 121.714 59.0854C122.214 58.0276 122.86 57.2342 123.625 56.7347C124.389 56.2352 125.3 55.9707 126.329 55.9707C127.358 55.9707 128.269 56.2352 129.033 56.7347C129.797 57.2342 130.444 58.0276 130.944 59.0854C131.444 60.1432 131.826 61.4949 132.061 63.1404C132.296 64.7859 132.443 66.7546 132.443 69.0759ZM129.886 69.0759C129.886 66.9897 129.797 65.2266 129.65 63.8456C129.503 62.4352 129.268 61.3186 128.974 60.4664C128.68 59.6143 128.298 59.0266 127.857 58.6446C127.416 58.292 126.887 58.0863 126.299 58.0863C125.712 58.0863 125.183 58.2626 124.742 58.6446C124.301 58.9972 123.919 59.6143 123.625 60.4664C123.331 61.3186 123.096 62.4352 122.949 63.8456C122.802 65.256 122.713 66.9897 122.713 69.0759C122.713 71.1622 122.802 72.9252 122.949 74.3062C123.096 75.7167 123.331 76.8333 123.625 77.6854C123.919 78.5375 124.301 79.1252 124.742 79.5072C125.183 79.8598 125.712 80.0655 126.299 80.0655C126.887 80.0655 127.416 79.8892 127.857 79.5072C128.298 79.1546 128.68 78.5375 128.974 77.6854C129.268 76.8333 129.503 75.7167 129.65 74.3062C129.797 72.8958 129.886 71.1622 129.886 69.0759Z" fill="white"/>
<path d="M141.144 62.6702H142.761V68.2825H148.375V69.8986H142.761V75.5109H141.144V69.8986H135.53V68.2825H141.144V62.6702Z" fill="white"/>
</g>
<defs>
<clipPath id="clip0_230_528">
<rect width="112.375" height="31" fill="white" transform="translate(36 56)"/>
</clipPath>
</defs>
</svg>