<svg xmlns="http://www.w3.org/2000/svg" width="61" height="72" viewBox="0 0 61 72" fill="none">
<path d="M41.2286 23C39.1555 23 37.2005 23.8293 35.7289 25.3442L30.9919 30.2205L26.255 25.3442C24.7834 23.8293 22.8392 23 20.7661 23C18.693 23 16.738 23.8293 15.2772 25.3442C13.8163 26.859 13 28.8604 13 30.9944C13 33.1285 13.8056 35.141 15.2772 36.6558C16.7488 38.1707 18.693 39 20.7661 39C22.8392 39 24.7941 38.1707 26.255 36.6558L30.9919 31.7795L35.7289 36.6558C37.2005 38.1707 39.1447 39 41.2286 39C43.3124 39 45.2566 38.1707 46.7282 36.6558C49.7573 33.5377 49.7573 28.4623 46.7282 25.3442C45.2566 23.8293 43.3124 23 41.2286 23ZM25.503 35.8707C24.2356 37.1755 22.5599 37.8943 20.7661 37.8943C18.9722 37.8943 17.2966 37.1755 16.0291 35.8707C14.7616 34.566 14.0634 32.841 14.0634 30.9944C14.0634 29.1479 14.7616 27.423 16.0291 26.1182C17.2966 24.8134 18.9722 24.0947 20.7661 24.0947C22.5599 24.0947 24.2356 24.8134 25.503 26.1182L30.24 30.9944L25.503 35.8707ZM45.9655 35.8707C44.6981 37.1755 43.0224 37.8943 41.2286 37.8943C39.4347 37.8943 37.7591 37.1755 36.4916 35.8707L31.7546 30.9944L36.4916 26.1182C37.7591 24.8134 39.4347 24.0947 41.2286 24.0947C43.0224 24.0947 44.6981 24.8134 45.9655 26.1182C48.5757 28.8051 48.5757 33.1838 45.9655 35.8707Z" fill="white"/>
<path d="M60.8581 12.2076C60.8046 10.3662 60.7617 8.65473 60.7617 7.10576V6.62918L60.2904 6.575C59.0157 6.42336 57.4947 6.29339 55.7273 6.15258C48.5077 5.56765 37.6033 4.6686 30.7801 0.195L30.4909 0L30.2017 0.195C23.3784 4.6686 12.4633 5.56765 5.25446 6.15258C3.48705 6.29339 1.966 6.42336 0.69133 6.575L0.22002 6.62918V7.10576C0.22002 8.65473 0.177178 10.3662 0.12362 12.2076C-0.336977 28.813 -1.09748 56.597 30.2659 71.8917L30.5016 72L30.7372 71.8917C62.1007 56.597 61.3294 28.813 60.8795 12.2076H60.8581ZM30.4909 70.7977C-0.0156233 55.7846 0.744912 28.5314 1.18409 12.2401C1.22693 10.572 1.26977 9.02303 1.28049 7.59321C2.43733 7.46323 3.78699 7.35491 5.32945 7.22493C12.549 6.62917 23.4212 5.74094 30.4801 1.28901C37.5498 5.75177 48.4113 6.64 55.6309 7.22493C57.1733 7.35491 58.523 7.46323 59.6798 7.59321C59.6798 9.02303 59.7334 10.5828 59.7762 12.2401C60.2261 28.5422 60.9759 55.7846 30.4801 70.7977H30.4909Z" fill="white"/>
</svg>