<svg xmlns="http://www.w3.org/2000/svg" width="95" height="89" viewBox="0 0 95 89" fill="none">
<path d="M70.45 18.3999H73.45C77.96 18.3999 81.61 22.0499 81.61 26.5599V68.7899C81.61 73.2999 77.96 76.9499 73.45 76.9499H21.39C16.88 76.9499 13.23 73.2999 13.23 68.7899V26.5599C13.23 22.0499 16.88 18.3999 21.39 18.3999H24.48" stroke="white" stroke-miterlimit="10"/>
<path d="M33.3799 18.3999H61.1799" stroke="white" stroke-miterlimit="10"/>
<path d="M30.1201 11.8H27.8201C27.4114 11.8 27.0801 12.1314 27.0801 12.54V25.09C27.0801 25.4987 27.4114 25.83 27.8201 25.83H30.1201C30.5288 25.83 30.8601 25.4987 30.8601 25.09V12.54C30.8601 12.1314 30.5288 11.8 30.1201 11.8Z" stroke="white" stroke-miterlimit="10"/>
<path d="M66.59 11.8H64.2901C63.8814 11.8 63.55 12.1314 63.55 12.54V25.09C63.55 25.4987 63.8814 25.83 64.2901 25.83H66.59C66.9987 25.83 67.3301 25.4987 67.3301 25.09V12.54C67.3301 12.1314 66.9987 11.8 66.59 11.8Z" stroke="white" stroke-miterlimit="10"/>
<path d="M13.1101 34.1101H81.7201" stroke="white" stroke-miterlimit="10"/>
<path d="M42.566 54.5949C40.6454 57.0935 38.3068 57.7604 36.2884 57.7604C31.7447 57.7604 29.1838 54.7194 29.1838 50.5225C29.1838 46.1032 32.2248 43 36.6707 43C41.7569 43 44.6111 46.7435 44.6111 53.688C44.6111 59.192 42.7527 66.75 35.6838 66.75C33.3452 66.75 31.3001 66.0476 29.7351 64.5093L31.0156 63.0066C32.3582 64.4115 33.8965 65.0517 35.6926 65.0517C40.9744 65.0517 42.6372 58.9697 42.6372 54.586H42.5749L42.566 54.5949ZM36.6796 44.645C33.3185 44.645 31.1756 46.948 31.1756 50.4691C31.1756 53.9903 33.1318 56.0976 36.5818 56.0976C39.3383 56.0976 41.8991 54.0525 42.5038 51.3939C42.5038 47.9083 40.4853 44.6361 36.6796 44.6361V44.645Z" fill="white"/>
<path d="M62.9815 54.5949C61.0609 57.0935 58.7224 57.7604 56.7039 57.7604C52.1602 57.7604 49.5994 54.7194 49.5994 50.5225C49.5994 46.1032 52.6404 43 57.0863 43C62.1724 43 65.0267 46.7435 65.0267 53.688C65.0267 59.192 63.1683 66.75 56.0993 66.75C53.7607 66.75 51.7156 66.0476 50.1507 64.5093L51.4311 63.0066C52.7737 64.4115 54.312 65.0517 56.1082 65.0517C61.3899 65.0517 63.0527 58.9697 63.0527 54.586H62.9904L62.9815 54.5949ZM57.0952 44.645C53.7341 44.645 51.5911 46.948 51.5911 50.4691C51.5911 53.9903 53.5473 56.0976 56.9974 56.0976C59.7538 56.0976 62.3147 54.0525 62.9193 51.3939C62.9193 47.9083 60.9009 44.6361 57.0952 44.6361V44.645Z" fill="white"/>
</svg>