<svg xmlns="http://www.w3.org/2000/svg" width="20" height="20" viewBox="0 0 20 20" fill="none">
<path d="M9.28835 17.7539C9.52355 17.8795 9.81875 17.8787 10.0539 17.7531C16.4635 14.3099 16.9187 7.58267 16.9131 5.66987C16.9125 5.51613 16.8671 5.36591 16.7824 5.2376C16.6977 5.10929 16.5775 5.00847 16.4363 4.94747L9.99635 2.09467C9.89386 2.0495 9.78307 2.02623 9.67106 2.02637C9.55906 2.02651 9.44832 2.05004 9.34595 2.09547L2.95075 4.94827C2.8117 5.0093 2.69314 5.10901 2.60917 5.23553C2.5252 5.36205 2.47937 5.51004 2.47715 5.66187C2.44995 7.56507 2.83315 14.3067 9.28835 17.7539ZM7.03715 8.58507L8.87155 10.4195L12.3059 6.98507L13.4371 8.11627L8.87155 12.6819L5.90595 9.71627L7.03715 8.58507Z" fill="#8BAC6A"/>
</svg>